<svg width="66" height="64" viewBox="0 0 66 64" fill="none" xmlns="http://www.w3.org/2000/svg">
<g clip-path="url(#clip0_31_69)">
<path d="M36.1871 2.27594L43.631 17.4341C44.1487 18.4884 45.1496 19.2189 46.3074 19.3877L62.9533 21.8185C65.8692 22.2447 67.0325 25.8447 64.9234 27.9103L52.8785 39.7092C52.0414 40.5296 51.6587 41.7126 51.8569 42.8706L54.6999 59.5313C55.1982 62.4492 52.1502 64.6739 49.5427 63.2973L34.6548 55.4318C33.6195 54.8853 32.3818 54.8853 31.3465 55.4318L16.4587 63.2973C13.8512 64.6753 10.8031 62.4492 11.3015 59.5313L14.1444 42.8706C14.3427 41.7126 13.9599 40.5296 13.1229 39.7092L1.07796 27.9103C-1.03118 25.8433 0.13215 22.2433 3.04805 21.8185L19.694 19.3877C20.8518 19.2189 21.8527 18.4884 22.3703 17.4341L29.8143 2.27594C31.1166 -0.379089 34.8833 -0.379089 36.1871 2.27594Z" fill="#3295E9"/>
</g>
<defs>
<clipPath id="clip0_31_69">
<rect width="66" height="64" fill="white"/>
</clipPath>
</defs>
</svg>
