<svg width="87" height="14" viewBox="0 0 87 14" fill="none" xmlns="http://www.w3.org/2000/svg">
<path d="M8.0763 0.439498L9.65532 3.78509C9.76513 4.01778 9.97744 4.17901 10.223 4.21627L13.754 4.7528C14.3725 4.84685 14.6193 5.64141 14.1719 6.09732L11.6169 8.70149C11.4394 8.88257 11.3582 9.14366 11.4002 9.39925L12.0033 13.0765C12.109 13.7205 11.4624 14.2115 10.9093 13.9077L7.75127 12.1717C7.53166 12.051 7.26912 12.051 7.04951 12.1717L3.89147 13.9077C3.33836 14.2118 2.6918 13.7205 2.79751 13.0765L3.40056 9.39925C3.44261 9.14366 3.36143 8.88257 3.18387 8.70149L0.628875 6.09732C0.18148 5.64111 0.428248 4.84654 1.04677 4.7528L4.57775 4.21627C4.82335 4.17901 5.03565 4.01778 5.14546 3.78509L6.72448 0.439498C7.00074 -0.146499 7.79975 -0.146499 8.0763 0.439498Z" fill="#3295E9"/>
<path d="M26.0763 0.439498L27.6553 3.78509C27.7651 4.01778 27.9774 4.17901 28.223 4.21627L31.754 4.7528C32.3725 4.84685 32.6193 5.64141 32.1719 6.09732L29.6169 8.70149C29.4394 8.88257 29.3582 9.14366 29.4002 9.39925L30.0033 13.0765C30.109 13.7205 29.4624 14.2115 28.9093 13.9077L25.7513 12.1717C25.5317 12.051 25.2691 12.051 25.0495 12.1717L21.8915 13.9077C21.3384 14.2118 20.6918 13.7205 20.7975 13.0765L21.4006 9.39925C21.4426 9.14366 21.3614 8.88257 21.1839 8.70149L18.6289 6.09732C18.1815 5.64111 18.4282 4.84654 19.0468 4.7528L22.5777 4.21627C22.8233 4.17901 23.0357 4.01778 23.1455 3.78509L24.7245 0.439498C25.0007 -0.146499 25.7997 -0.146499 26.0763 0.439498Z" fill="#3295E9"/>
<path d="M44.0763 0.439498L45.6553 3.78509C45.7651 4.01778 45.9774 4.17901 46.223 4.21627L49.754 4.7528C50.3725 4.84685 50.6193 5.64141 50.1719 6.09732L47.6169 8.70149C47.4394 8.88257 47.3582 9.14366 47.4002 9.39925L48.0033 13.0765C48.109 13.7205 47.4624 14.2115 46.9093 13.9077L43.7513 12.1717C43.5317 12.051 43.2691 12.051 43.0495 12.1717L39.8915 13.9077C39.3384 14.2118 38.6918 13.7205 38.7975 13.0765L39.4006 9.39925C39.4426 9.14366 39.3614 8.88257 39.1839 8.70149L36.6289 6.09732C36.1815 5.64111 36.4282 4.84654 37.0468 4.7528L40.5777 4.21627C40.8233 4.17901 41.0357 4.01778 41.1455 3.78509L42.7245 0.439498C43.0007 -0.146499 43.7997 -0.146499 44.0763 0.439498Z" fill="#3295E9"/>
<path d="M62.0763 0.439498L63.6553 3.78509C63.7651 4.01778 63.9774 4.17901 64.223 4.21627L67.754 4.7528C68.3725 4.84685 68.6193 5.64141 68.1719 6.09732L65.6169 8.70149C65.4394 8.88257 65.3582 9.14366 65.4002 9.39925L66.0033 13.0765C66.109 13.7205 65.4624 14.2115 64.9093 13.9077L61.7513 12.1717C61.5317 12.051 61.2691 12.051 61.0495 12.1717L57.8915 13.9077C57.3384 14.2118 56.6918 13.7205 56.7975 13.0765L57.4006 9.39925C57.4426 9.14366 57.3614 8.88257 57.1839 8.70149L54.6289 6.09732C54.1815 5.64111 54.4282 4.84654 55.0468 4.7528L58.5777 4.21627C58.8233 4.17901 59.0357 4.01778 59.1455 3.78509L60.7245 0.439498C61.0007 -0.146499 61.7997 -0.146499 62.0763 0.439498Z" fill="#3295E9"/>
<path d="M80.0763 0.439498L81.6553 3.78509C81.7651 4.01778 81.9774 4.17901 82.223 4.21627L85.754 4.7528C86.3725 4.84685 86.6193 5.64141 86.1719 6.09732L83.6169 8.70149C83.4394 8.88257 83.3582 9.14366 83.4002 9.39925L84.0033 13.0765C84.109 13.7205 83.4624 14.2115 82.9093 13.9077L79.7513 12.1717C79.5317 12.051 79.2691 12.051 79.0495 12.1717L75.8915 13.9077C75.3384 14.2118 74.6918 13.7205 74.7975 13.0765L75.4006 9.39925C75.4426 9.14366 75.3614 8.88257 75.1839 8.70149L72.6289 6.09732C72.1815 5.64111 72.4282 4.84654 73.0468 4.7528L76.5777 4.21627C76.8233 4.17901 77.0357 4.01778 77.1455 3.78509L78.7245 0.439498C79.0007 -0.146499 79.7997 -0.146499 80.0763 0.439498Z" fill="#3295E9"/>
</svg>
