<svg width="87" height="14" viewBox="0 0 87 14" fill="none" xmlns="http://www.w3.org/2000/svg">
<path d="M7.87611 0.439498L9.45513 3.78509C9.56493 4.01778 9.77724 4.17901 10.0228 4.21627L13.5538 4.7528C14.1723 4.84685 14.4191 5.64141 13.9717 6.09732L11.4167 8.70149C11.2392 8.88257 11.158 9.14366 11.2 9.39925L11.8031 13.0765C11.9088 13.7205 11.2622 14.2115 10.7091 13.9077L7.55107 12.1717C7.33146 12.051 7.06893 12.051 6.84932 12.1717L3.69127 13.9077C3.13816 14.2118 2.4916 13.7205 2.59732 13.0765L3.20036 9.39925C3.24242 9.14366 3.16123 8.88257 2.98368 8.70149L0.428679 6.09732C-0.0187154 5.64111 0.228053 4.84654 0.846579 4.7528L4.37755 4.21627C4.62315 4.17901 4.83546 4.01778 4.94526 3.78509L6.52429 0.439498C6.80055 -0.146499 7.59955 -0.146499 7.87611 0.439498Z" fill="#3295E9"/>
<path d="M25.8761 0.439498L27.4551 3.78509C27.5649 4.01778 27.7772 4.17901 28.0228 4.21627L31.5538 4.7528C32.1723 4.84685 32.4191 5.64141 31.9717 6.09732L29.4167 8.70149C29.2392 8.88257 29.158 9.14366 29.2 9.39925L29.8031 13.0765C29.9088 13.7205 29.2622 14.2115 28.7091 13.9077L25.5511 12.1717C25.3315 12.051 25.0689 12.051 24.8493 12.1717L21.6913 13.9077C21.1382 14.2118 20.4916 13.7205 20.5973 13.0765L21.2004 9.39925C21.2424 9.14366 21.1612 8.88257 20.9837 8.70149L18.4287 6.09732C17.9813 5.64111 18.2281 4.84654 18.8466 4.7528L22.3776 4.21627C22.6231 4.17901 22.8355 4.01778 22.9453 3.78509L24.5243 0.439498C24.8005 -0.146499 25.5996 -0.146499 25.8761 0.439498Z" fill="#3295E9"/>
<path d="M43.8761 0.439498L45.4551 3.78509C45.5649 4.01778 45.7772 4.17901 46.0228 4.21627L49.5538 4.7528C50.1723 4.84685 50.4191 5.64141 49.9717 6.09732L47.4167 8.70149C47.2392 8.88257 47.158 9.14366 47.2 9.39925L47.8031 13.0765C47.9088 13.7205 47.2622 14.2115 46.7091 13.9077L43.5511 12.1717C43.3315 12.051 43.0689 12.051 42.8493 12.1717L39.6913 13.9077C39.1382 14.2118 38.4916 13.7205 38.5973 13.0765L39.2004 9.39925C39.2424 9.14366 39.1612 8.88257 38.9837 8.70149L36.4287 6.09732C35.9813 5.64111 36.2281 4.84654 36.8466 4.7528L40.3776 4.21627C40.6231 4.17901 40.8355 4.01778 40.9453 3.78509L42.5243 0.439498C42.8005 -0.146499 43.5996 -0.146499 43.8761 0.439498Z" fill="#3295E9"/>
<path d="M61.8761 0.439498L63.4551 3.78509C63.5649 4.01778 63.7772 4.17901 64.0228 4.21627L67.5538 4.7528C68.1723 4.84685 68.4191 5.64141 67.9717 6.09732L65.4167 8.70149C65.2392 8.88257 65.158 9.14366 65.2 9.39925L65.8031 13.0765C65.9088 13.7205 65.2622 14.2115 64.7091 13.9077L61.5511 12.1717C61.3315 12.051 61.0689 12.051 60.8493 12.1717L57.6913 13.9077C57.1382 14.2118 56.4916 13.7205 56.5973 13.0765L57.2004 9.39925C57.2424 9.14366 57.1612 8.88257 56.9837 8.70149L54.4287 6.09732C53.9813 5.64111 54.2281 4.84654 54.8466 4.7528L58.3776 4.21627C58.6231 4.17901 58.8355 4.01778 58.9453 3.78509L60.5243 0.439498C60.8005 -0.146499 61.5996 -0.146499 61.8761 0.439498Z" fill="#3295E9"/>
<path d="M79.8761 0.439498L81.4551 3.78509C81.5649 4.01778 81.7772 4.17901 82.0228 4.21627L85.5538 4.7528C86.1723 4.84685 86.4191 5.64141 85.9717 6.09732L83.4167 8.70149C83.2392 8.88257 83.158 9.14366 83.2 9.39925L83.8031 13.0765C83.9088 13.7205 83.2622 14.2115 82.7091 13.9077L79.5511 12.1717C79.3315 12.051 79.0689 12.051 78.8493 12.1717L75.6913 13.9077C75.1382 14.2118 74.4916 13.7205 74.5973 13.0765L75.2004 9.39925C75.2424 9.14366 75.1612 8.88257 74.9837 8.70149L72.4287 6.09732C71.9813 5.64111 72.2281 4.84654 72.8466 4.7528L76.3776 4.21627C76.6231 4.17901 76.8355 4.01778 76.9453 3.78509L78.5243 0.439498C78.8005 -0.146499 79.5996 -0.146499 79.8761 0.439498Z" fill="#3295E9"/>
</svg>
