<svg width="86" height="14" viewBox="0 0 86 14" fill="none" xmlns="http://www.w3.org/2000/svg">
<path d="M7.67591 0.439498L9.25493 3.78509C9.36474 4.01778 9.57705 4.17901 9.82265 4.21627L13.3536 4.7528C13.9721 4.84685 14.2189 5.64141 13.7715 6.09732L11.2165 8.70149C11.039 8.88257 10.9578 9.14366 10.9998 9.39925L11.6029 13.0765C11.7086 13.7205 11.062 14.2115 10.5089 13.9077L7.35088 12.1717C7.13127 12.051 6.86873 12.051 6.64912 12.1717L3.49108 13.9077C2.93797 14.2118 2.29141 13.7205 2.39712 13.0765L3.00017 9.39925C3.04222 9.14366 2.96104 8.88257 2.78348 8.70149L0.228484 6.09732C-0.218911 5.64111 0.0278572 4.84654 0.646383 4.7528L4.17735 4.21627C4.42295 4.17901 4.63526 4.01778 4.74507 3.78509L6.32409 0.439498C6.60035 -0.146499 7.39936 -0.146499 7.67591 0.439498Z" fill="#3295E9"/>
<path d="M25.6759 0.439498L27.2549 3.78509C27.3647 4.01778 27.577 4.17901 27.8226 4.21627L31.3536 4.7528C31.9721 4.84685 32.2189 5.64141 31.7715 6.09732L29.2165 8.70149C29.039 8.88257 28.9578 9.14366 28.9998 9.39925L29.6029 13.0765C29.7086 13.7205 29.062 14.2115 28.5089 13.9077L25.3509 12.1717C25.1313 12.051 24.8687 12.051 24.6491 12.1717L21.4911 13.9077C20.938 14.2118 20.2914 13.7205 20.3971 13.0765L21.0002 9.39925C21.0422 9.14366 20.961 8.88257 20.7835 8.70149L18.2285 6.09732C17.7811 5.64111 18.0279 4.84654 18.6464 4.7528L22.1774 4.21627C22.423 4.17901 22.6353 4.01778 22.7451 3.78509L24.3241 0.439498C24.6004 -0.146499 25.3994 -0.146499 25.6759 0.439498Z" fill="#3295E9"/>
<path d="M43.6759 0.439498L45.2549 3.78509C45.3647 4.01778 45.577 4.17901 45.8226 4.21627L49.3536 4.7528C49.9721 4.84685 50.2189 5.64141 49.7715 6.09732L47.2165 8.70149C47.039 8.88257 46.9578 9.14366 46.9998 9.39925L47.6029 13.0765C47.7086 13.7205 47.062 14.2115 46.5089 13.9077L43.3509 12.1717C43.1313 12.051 42.8687 12.051 42.6491 12.1717L39.4911 13.9077C38.938 14.2118 38.2914 13.7205 38.3971 13.0765L39.0002 9.39925C39.0422 9.14366 38.961 8.88257 38.7835 8.70149L36.2285 6.09732C35.7811 5.64111 36.0279 4.84654 36.6464 4.7528L40.1774 4.21627C40.423 4.17901 40.6353 4.01778 40.7451 3.78509L42.3241 0.439498C42.6004 -0.146499 43.3994 -0.146499 43.6759 0.439498Z" fill="#3295E9"/>
<path d="M61.6759 0.439498L63.2549 3.78509C63.3647 4.01778 63.577 4.17901 63.8226 4.21627L67.3536 4.7528C67.9721 4.84685 68.2189 5.64141 67.7715 6.09732L65.2165 8.70149C65.039 8.88257 64.9578 9.14366 64.9998 9.39925L65.6029 13.0765C65.7086 13.7205 65.062 14.2115 64.5089 13.9077L61.3509 12.1717C61.1313 12.051 60.8687 12.051 60.6491 12.1717L57.4911 13.9077C56.938 14.2118 56.2914 13.7205 56.3971 13.0765L57.0002 9.39925C57.0422 9.14366 56.961 8.88257 56.7835 8.70149L54.2285 6.09732C53.7811 5.64111 54.0279 4.84654 54.6464 4.7528L58.1774 4.21627C58.423 4.17901 58.6353 4.01778 58.7451 3.78509L60.3241 0.439498C60.6004 -0.146499 61.3994 -0.146499 61.6759 0.439498Z" fill="#3295E9"/>
<path d="M79.6759 0.439498L81.2549 3.78509C81.3647 4.01778 81.577 4.17901 81.8226 4.21627L85.3536 4.7528C85.9721 4.84685 86.2189 5.64141 85.7715 6.09732L83.2165 8.70149C83.039 8.88257 82.9578 9.14366 82.9998 9.39925L83.6029 13.0765C83.7086 13.7205 83.062 14.2115 82.5089 13.9077L79.3509 12.1717C79.1313 12.051 78.8687 12.051 78.6491 12.1717L75.4911 13.9077C74.938 14.2118 74.2914 13.7205 74.3971 13.0765L75.0002 9.39925C75.0422 9.14366 74.961 8.88257 74.7835 8.70149L72.2285 6.09732C71.7811 5.64111 72.0279 4.84654 72.6464 4.7528L76.1774 4.21627C76.423 4.17901 76.6353 4.01778 76.7451 3.78509L78.3241 0.439498C78.6004 -0.146499 79.3994 -0.146499 79.6759 0.439498Z" fill="#3295E9"/>
</svg>
