<svg width="186" height="134" viewBox="0 0 186 134" fill="none" xmlns="http://www.w3.org/2000/svg">
<path d="M3.75 13.5H21.2188C24.6979 13.5 27.7083 14.0208 30.25 15.0625C32.8125 16.1042 34.7812 17.6458 36.1562 19.6875C37.5312 21.7292 38.2188 24.25 38.2188 27.25C38.2188 29.75 37.8125 31.875 37 33.625C36.1875 35.375 35.0417 36.8229 33.5625 37.9688C32.1042 39.1146 30.3958 40.0417 28.4375 40.75L25.125 42.5625H10.25L10.1875 34.6562H21.25C22.7708 34.6562 24.0312 34.3854 25.0312 33.8438C26.0312 33.3021 26.7812 32.5417 27.2812 31.5625C27.8021 30.5625 28.0625 29.3958 28.0625 28.0625C28.0625 26.6875 27.8021 25.5 27.2812 24.5C26.7604 23.5 25.9896 22.7396 24.9688 22.2188C23.9688 21.6771 22.7188 21.4062 21.2188 21.4062H13.9375V59H3.75V13.5ZM28.9375 59L18.7188 38.7812L29.4688 38.75L39.8438 58.5312V59H28.9375ZM62.8512 50.9375V36.4375C62.8512 35.4167 62.695 34.5417 62.3825 33.8125C62.07 33.0833 61.5804 32.5104 60.9137 32.0938C60.2471 31.6771 59.3825 31.4688 58.32 31.4688C57.4242 31.4688 56.6429 31.625 55.9762 31.9375C55.3304 32.25 54.8304 32.6979 54.4762 33.2812C54.1429 33.8646 53.9762 34.5833 53.9762 35.4375H44.2262C44.2262 33.9167 44.57 32.5 45.2575 31.1875C45.945 29.875 46.9242 28.7188 48.195 27.7188C49.4867 26.7188 51.0283 25.9479 52.82 25.4062C54.6117 24.8438 56.6221 24.5625 58.8512 24.5625C61.4971 24.5625 63.8512 25.0104 65.9137 25.9062C67.9971 26.7812 69.6429 28.1042 70.8512 29.875C72.0596 31.625 72.6637 33.8333 72.6637 36.5V50.6562C72.6637 52.6979 72.7783 54.3021 73.0075 55.4688C73.2575 56.6146 73.6117 57.6146 74.07 58.4688V59H64.2262C63.7679 58.0208 63.4242 56.8125 63.195 55.375C62.9658 53.9167 62.8512 52.4375 62.8512 50.9375ZM64.07 38.375L64.1325 43.75H59.2887C58.2054 43.75 57.2679 43.8854 56.4762 44.1562C55.7054 44.4271 55.0804 44.8021 54.6012 45.2812C54.1221 45.7396 53.7679 46.2812 53.5387 46.9062C53.3304 47.5104 53.2262 48.1771 53.2262 48.9062C53.2262 49.5938 53.3929 50.2188 53.7262 50.7812C54.0596 51.3229 54.5179 51.75 55.1012 52.0625C55.6846 52.375 56.3617 52.5312 57.1325 52.5312C58.4033 52.5312 59.4867 52.2812 60.3825 51.7812C61.2992 51.2812 62.0075 50.6771 62.5075 49.9688C63.0075 49.2396 63.2575 48.5625 63.2575 47.9375L65.6012 52C65.2262 52.8333 64.7679 53.6979 64.2262 54.5938C63.6846 55.4688 62.9971 56.2917 62.1637 57.0625C61.3304 57.8125 60.32 58.4271 59.1325 58.9062C57.9658 59.3854 56.5596 59.625 54.9137 59.625C52.7887 59.625 50.8617 59.1979 49.1325 58.3438C47.4033 57.4688 46.0179 56.2708 44.9762 54.75C43.9554 53.2292 43.445 51.4792 43.445 49.5C43.445 47.7292 43.7679 46.1562 44.4137 44.7812C45.0596 43.4062 46.0283 42.2396 47.32 41.2812C48.6325 40.3229 50.2783 39.6042 52.2575 39.125C54.2367 38.625 56.5492 38.375 59.195 38.375H64.07ZM96.5775 25.1875V32.0312H76.515V25.1875H96.5775ZM81.1087 16.8125H90.89V48.4062C90.89 49.3438 91.0046 50.0625 91.2337 50.5625C91.4629 51.0625 91.8379 51.4167 92.3587 51.625C92.8796 51.8125 93.5462 51.9062 94.3587 51.9062C94.9421 51.9062 95.4421 51.8854 95.8587 51.8438C96.2754 51.8021 96.6608 51.75 97.015 51.6875V58.75C96.1817 59.0208 95.2962 59.2292 94.3587 59.375C93.4212 59.5417 92.4004 59.625 91.2962 59.625C89.1921 59.625 87.3692 59.2812 85.8275 58.5938C84.3067 57.9062 83.14 56.8229 82.3275 55.3438C81.515 53.8438 81.1087 51.8958 81.1087 49.5V16.8125ZM117.522 59.625C114.835 59.625 112.429 59.1979 110.304 58.3438C108.179 57.4896 106.377 56.3125 104.897 54.8125C103.439 53.2917 102.325 51.5417 101.554 49.5625C100.783 47.5833 100.397 45.4688 100.397 43.2188V42.0312C100.397 39.5104 100.752 37.1875 101.46 35.0625C102.168 32.9375 103.2 31.0938 104.554 29.5312C105.929 27.9479 107.616 26.7292 109.616 25.875C111.616 25 113.897 24.5625 116.46 24.5625C118.856 24.5625 120.991 24.9583 122.866 25.75C124.741 26.5208 126.325 27.6354 127.616 29.0938C128.908 30.5312 129.887 32.2708 130.554 34.3125C131.241 36.3333 131.585 38.6042 131.585 41.125V45.125H104.335V38.8438H122.022V38.0938C122.022 36.9062 121.804 35.8646 121.366 34.9688C120.95 34.0729 120.325 33.3854 119.491 32.9062C118.679 32.4062 117.647 32.1562 116.397 32.1562C115.21 32.1562 114.22 32.4062 113.429 32.9062C112.637 33.4062 112.002 34.1146 111.522 35.0312C111.064 35.9271 110.731 36.9792 110.522 38.1875C110.314 39.375 110.21 40.6562 110.21 42.0312V43.2188C110.21 44.5312 110.387 45.7292 110.741 46.8125C111.095 47.8958 111.616 48.8229 112.304 49.5938C112.991 50.3646 113.825 50.9688 114.804 51.4062C115.783 51.8438 116.897 52.0625 118.147 52.0625C119.689 52.0625 121.158 51.7708 122.554 51.1875C123.95 50.5833 125.158 49.6458 126.179 48.375L130.741 53.5938C130.054 54.5938 129.085 55.5625 127.835 56.5C126.606 57.4167 125.127 58.1667 123.397 58.75C121.668 59.3333 119.71 59.625 117.522 59.625Z" fill="#FAF6F0"/>
<path d="M55.75 72.5H73.2188C76.6979 72.5 79.7083 73.0208 82.25 74.0625C84.8125 75.1042 86.7812 76.6458 88.1562 78.6875C89.5312 80.7292 90.2188 83.25 90.2188 86.25C90.2188 88.75 89.8125 90.875 89 92.625C88.1875 94.375 87.0417 95.8229 85.5625 96.9688C84.1042 98.1146 82.3958 99.0417 80.4375 99.75L77.125 101.562H62.25L62.1875 93.6562H73.25C74.7708 93.6562 76.0312 93.3854 77.0312 92.8438C78.0312 92.3021 78.7812 91.5417 79.2812 90.5625C79.8021 89.5625 80.0625 88.3958 80.0625 87.0625C80.0625 85.6875 79.8021 84.5 79.2812 83.5C78.7604 82.5 77.9896 81.7396 76.9688 81.2188C75.9688 80.6771 74.7188 80.4062 73.2188 80.4062H65.9375V118H55.75V72.5ZM80.9375 118L70.7188 97.7812L81.4688 97.75L91.8438 117.531V118H80.9375ZM112.882 118.625C110.195 118.625 107.789 118.198 105.664 117.344C103.539 116.49 101.737 115.312 100.257 113.812C98.7992 112.292 97.6846 110.542 96.9137 108.562C96.1429 106.583 95.7575 104.469 95.7575 102.219V101.031C95.7575 98.5104 96.1117 96.1875 96.82 94.0625C97.5283 91.9375 98.5596 90.0938 99.9137 88.5312C101.289 86.9479 102.976 85.7292 104.976 84.875C106.976 84 109.257 83.5625 111.82 83.5625C114.216 83.5625 116.351 83.9583 118.226 84.75C120.101 85.5208 121.685 86.6354 122.976 88.0938C124.268 89.5312 125.247 91.2708 125.914 93.3125C126.601 95.3333 126.945 97.6042 126.945 100.125V104.125H99.695V97.8438H117.382V97.0938C117.382 95.9062 117.164 94.8646 116.726 93.9688C116.31 93.0729 115.685 92.3854 114.851 91.9062C114.039 91.4062 113.007 91.1562 111.757 91.1562C110.57 91.1562 109.58 91.4062 108.789 91.9062C107.997 92.4062 107.362 93.1146 106.882 94.0312C106.424 94.9271 106.091 95.9792 105.882 97.1875C105.674 98.375 105.57 99.6562 105.57 101.031V102.219C105.57 103.531 105.747 104.729 106.101 105.812C106.455 106.896 106.976 107.823 107.664 108.594C108.351 109.365 109.185 109.969 110.164 110.406C111.143 110.844 112.257 111.062 113.507 111.062C115.049 111.062 116.518 110.771 117.914 110.188C119.31 109.583 120.518 108.646 121.539 107.375L126.101 112.594C125.414 113.594 124.445 114.562 123.195 115.5C121.966 116.417 120.487 117.167 118.757 117.75C117.028 118.333 115.07 118.625 112.882 118.625ZM147.952 118.625C145.265 118.625 142.859 118.198 140.734 117.344C138.609 116.49 136.807 115.312 135.327 113.812C133.869 112.292 132.755 110.542 131.984 108.562C131.213 106.583 130.827 104.469 130.827 102.219V101.031C130.827 98.5104 131.182 96.1875 131.89 94.0625C132.598 91.9375 133.63 90.0938 134.984 88.5312C136.359 86.9479 138.046 85.7292 140.046 84.875C142.046 84 144.327 83.5625 146.89 83.5625C149.286 83.5625 151.421 83.9583 153.296 84.75C155.171 85.5208 156.755 86.6354 158.046 88.0938C159.338 89.5312 160.317 91.2708 160.984 93.3125C161.671 95.3333 162.015 97.6042 162.015 100.125V104.125H134.765V97.8438H152.452V97.0938C152.452 95.9062 152.234 94.8646 151.796 93.9688C151.38 93.0729 150.755 92.3854 149.921 91.9062C149.109 91.4062 148.077 91.1562 146.827 91.1562C145.64 91.1562 144.65 91.4062 143.859 91.9062C143.067 92.4062 142.432 93.1146 141.952 94.0312C141.494 94.9271 141.161 95.9792 140.952 97.1875C140.744 98.375 140.64 99.6562 140.64 101.031V102.219C140.64 103.531 140.817 104.729 141.171 105.812C141.525 106.896 142.046 107.823 142.734 108.594C143.421 109.365 144.255 109.969 145.234 110.406C146.213 110.844 147.327 111.062 148.577 111.062C150.119 111.062 151.588 110.771 152.984 110.188C154.38 109.583 155.588 108.646 156.609 107.375L161.171 112.594C160.484 113.594 159.515 114.562 158.265 115.5C157.036 116.417 155.557 117.167 153.827 117.75C152.098 118.333 150.14 118.625 147.952 118.625ZM177.366 70V118H167.585V70H177.366Z" fill="#FAF6F0"/>
<circle cx="18" cy="97" r="18" fill="#C84B31"/>
<circle cx="168" cy="38" r="18" fill="#035397"/>
</svg>
