<svg width="103" height="76" viewBox="0 0 103 76" fill="none" xmlns="http://www.w3.org/2000/svg">
<path d="M2.10938 7.40625H11.9355C13.8926 7.40625 15.5859 7.69922 17.0156 8.28516C18.457 8.87109 19.5645 9.73828 20.3379 10.8867C21.1113 12.0352 21.498 13.4531 21.498 15.1406C21.498 16.5469 21.2695 17.7422 20.8125 18.7266C20.3555 19.7109 19.7109 20.5254 18.8789 21.1699C18.0586 21.8145 17.0977 22.3359 15.9961 22.7344L14.1328 23.7539H5.76562L5.73047 19.3066H11.9531C12.8086 19.3066 13.5176 19.1543 14.0801 18.8496C14.6426 18.5449 15.0645 18.1172 15.3457 17.5664C15.6387 17.0039 15.7852 16.3477 15.7852 15.5977C15.7852 14.8242 15.6387 14.1562 15.3457 13.5938C15.0527 13.0312 14.6191 12.6035 14.0449 12.3105C13.4824 12.0059 12.7793 11.8535 11.9355 11.8535H7.83984V33H2.10938V7.40625ZM16.2773 33L10.5293 21.627L16.5762 21.6094L22.4121 32.7363V33H16.2773ZM35.3538 28.4648V20.3086C35.3538 19.7344 35.2659 19.2422 35.0902 18.832C34.9144 18.4219 34.639 18.0996 34.264 17.8652C33.889 17.6309 33.4027 17.5137 32.805 17.5137C32.3011 17.5137 31.8616 17.6016 31.4866 17.7773C31.1234 17.9531 30.8421 18.2051 30.6429 18.5332C30.4554 18.8613 30.3616 19.2656 30.3616 19.7461H24.8773C24.8773 18.8906 25.0706 18.0938 25.4573 17.3555C25.8441 16.6172 26.3948 15.9668 27.1097 15.4043C27.8363 14.8418 28.7034 14.4082 29.7113 14.1035C30.7191 13.7871 31.8499 13.6289 33.1038 13.6289C34.5921 13.6289 35.9163 13.8809 37.0765 14.3848C38.2484 14.877 39.1741 15.6211 39.8538 16.6172C40.5335 17.6016 40.8734 18.8438 40.8734 20.3438V28.3066C40.8734 29.4551 40.9378 30.3574 41.0667 31.0137C41.2073 31.6582 41.4066 32.2207 41.6644 32.7012V33H36.1273C35.8695 32.4492 35.6761 31.7695 35.5472 30.9609C35.4183 30.1406 35.3538 29.3086 35.3538 28.4648ZM36.0394 21.3984L36.0745 24.4219H33.3499C32.7405 24.4219 32.2132 24.498 31.7679 24.6504C31.3343 24.8027 30.9827 25.0137 30.7132 25.2832C30.4437 25.541 30.2445 25.8457 30.1155 26.1973C29.9984 26.5371 29.9398 26.9121 29.9398 27.3223C29.9398 27.709 30.0335 28.0605 30.221 28.377C30.4085 28.6816 30.6663 28.9219 30.9945 29.0977C31.3226 29.2734 31.7034 29.3613 32.137 29.3613C32.8519 29.3613 33.4613 29.2207 33.9652 28.9395C34.4808 28.6582 34.8792 28.3184 35.1605 27.9199C35.4417 27.5098 35.5823 27.1289 35.5823 26.7773L36.9007 29.0625C36.6898 29.5312 36.432 30.0176 36.1273 30.5215C35.8226 31.0137 35.4359 31.4766 34.9671 31.9102C34.4984 32.332 33.93 32.6777 33.262 32.9473C32.6058 33.2168 31.8148 33.3516 30.889 33.3516C29.6937 33.3516 28.6097 33.1113 27.637 32.6309C26.6644 32.1387 25.8851 31.4648 25.2991 30.6094C24.7249 29.7539 24.4378 28.7695 24.4378 27.6562C24.4378 26.6602 24.6195 25.7754 24.9827 25.002C25.346 24.2285 25.8909 23.5723 26.6175 23.0332C27.3558 22.4941 28.2816 22.0898 29.3948 21.8203C30.5081 21.5391 31.8089 21.3984 33.2972 21.3984H36.0394ZM54.3248 13.9805V17.8301H43.0397V13.9805H54.3248ZM45.6237 9.26953H51.1256V27.041C51.1256 27.5684 51.1901 27.9727 51.319 28.2539C51.4479 28.5352 51.6588 28.7344 51.9518 28.8516C52.2448 28.957 52.6198 29.0098 53.0768 29.0098C53.4049 29.0098 53.6862 28.998 53.9205 28.9746C54.1549 28.9512 54.3717 28.9219 54.5709 28.8867V32.8594C54.1022 33.0117 53.6041 33.1289 53.0768 33.2109C52.5495 33.3047 51.9752 33.3516 51.3541 33.3516C50.1705 33.3516 49.1452 33.1582 48.278 32.7715C47.4225 32.3848 46.7663 31.7754 46.3092 30.9434C45.8522 30.0996 45.6237 29.0039 45.6237 27.6562V9.26953ZM66.1064 33.3516C64.5947 33.3516 63.2412 33.1113 62.0459 32.6309C60.8505 32.1504 59.8369 31.4883 59.0048 30.6445C58.1845 29.7891 57.5576 28.8047 57.124 27.6914C56.6904 26.5781 56.4736 25.3887 56.4736 24.123V23.4551C56.4736 22.0371 56.6728 20.7305 57.0713 19.5352C57.4697 18.3398 58.0498 17.3027 58.8115 16.4238C59.5849 15.5332 60.5341 14.8477 61.6591 14.3672C62.7841 13.875 64.0673 13.6289 65.5088 13.6289C66.8564 13.6289 68.0576 13.8516 69.1123 14.2969C70.167 14.7305 71.0576 15.3574 71.7841 16.1777C72.5107 16.9863 73.0615 17.9648 73.4365 19.1133C73.8232 20.25 74.0166 21.5273 74.0166 22.9453V25.1953H58.6884V21.6621H68.6377V21.2402C68.6377 20.5723 68.5146 19.9863 68.2685 19.4824C68.0341 18.9785 67.6826 18.5918 67.2138 18.3223C66.7568 18.041 66.1767 17.9004 65.4736 17.9004C64.8056 17.9004 64.249 18.041 63.8037 18.3223C63.3584 18.6035 63.0009 19.002 62.7314 19.5176C62.4736 20.0215 62.2861 20.6133 62.1689 21.293C62.0517 21.9609 61.9931 22.6816 61.9931 23.4551V24.123C61.9931 24.8613 62.0927 25.5352 62.292 26.1445C62.4912 26.7539 62.7841 27.2754 63.1709 27.709C63.5576 28.1426 64.0263 28.4824 64.5771 28.7285C65.1279 28.9746 65.7548 29.0977 66.458 29.0977C67.3252 29.0977 68.1513 28.9336 68.9365 28.6055C69.7216 28.2656 70.4013 27.7383 70.9755 27.0234L73.542 29.959C73.1552 30.5215 72.6103 31.0664 71.9072 31.5938C71.2158 32.1094 70.3838 32.5312 69.4111 32.8594C68.4384 33.1875 67.3369 33.3516 66.1064 33.3516Z" fill="#FAF6F0"/>
<path d="M30.1094 41.4062H39.9355C41.8926 41.4062 43.5859 41.6992 45.0156 42.2852C46.457 42.8711 47.5645 43.7383 48.3379 44.8867C49.1113 46.0352 49.498 47.4531 49.498 49.1406C49.498 50.5469 49.2695 51.7422 48.8125 52.7266C48.3555 53.7109 47.7109 54.5254 46.8789 55.1699C46.0586 55.8145 45.0977 56.3359 43.9961 56.7344L42.1328 57.7539H33.7656L33.7305 53.3066H39.9531C40.8086 53.3066 41.5176 53.1543 42.0801 52.8496C42.6426 52.5449 43.0645 52.1172 43.3457 51.5664C43.6387 51.0039 43.7852 50.3477 43.7852 49.5977C43.7852 48.8242 43.6387 48.1562 43.3457 47.5938C43.0527 47.0312 42.6191 46.6035 42.0449 46.3105C41.4824 46.0059 40.7793 45.8535 39.9355 45.8535H35.8398V67H30.1094V41.4062ZM44.2773 67L38.5293 55.627L44.5762 55.6094L50.4121 66.7363V67H44.2773ZM62.2464 67.3516C60.7347 67.3516 59.3812 67.1113 58.1859 66.6309C56.9905 66.1504 55.9769 65.4883 55.1448 64.6445C54.3245 63.7891 53.6976 62.8047 53.264 61.6914C52.8304 60.5781 52.6136 59.3887 52.6136 58.123V57.4551C52.6136 56.0371 52.8128 54.7305 53.2113 53.5352C53.6097 52.3398 54.1898 51.3027 54.9515 50.4238C55.7249 49.5332 56.6741 48.8477 57.7991 48.3672C58.9241 47.875 60.2073 47.6289 61.6488 47.6289C62.9964 47.6289 64.1976 47.8516 65.2523 48.2969C66.307 48.7305 67.1976 49.3574 67.9241 50.1777C68.6507 50.9863 69.2015 51.9648 69.5765 53.1133C69.9632 54.25 70.1566 55.5273 70.1566 56.9453V59.1953H54.8284V55.6621H64.7777V55.2402C64.7777 54.5723 64.6546 53.9863 64.4085 53.4824C64.1741 52.9785 63.8226 52.5918 63.3538 52.3223C62.8968 52.041 62.3167 51.9004 61.6136 51.9004C60.9456 51.9004 60.389 52.041 59.9437 52.3223C59.4984 52.6035 59.1409 53.002 58.8714 53.5176C58.6136 54.0215 58.4261 54.6133 58.3089 55.293C58.1917 55.9609 58.1331 56.6816 58.1331 57.4551V58.123C58.1331 58.8613 58.2327 59.5352 58.432 60.1445C58.6312 60.7539 58.9241 61.2754 59.3109 61.709C59.6976 62.1426 60.1663 62.4824 60.7171 62.7285C61.2679 62.9746 61.8948 63.0977 62.598 63.0977C63.4652 63.0977 64.2913 62.9336 65.0765 62.6055C65.8616 62.2656 66.5413 61.7383 67.1155 61.0234L69.682 63.959C69.2952 64.5215 68.7503 65.0664 68.0472 65.5938C67.3558 66.1094 66.5238 66.5312 65.5511 66.8594C64.5784 67.1875 63.4769 67.3516 62.2464 67.3516ZM81.9733 67.3516C80.4616 67.3516 79.108 67.1113 77.9127 66.6309C76.7174 66.1504 75.7038 65.4883 74.8717 64.6445C74.0514 63.7891 73.4245 62.8047 72.9909 61.6914C72.5573 60.5781 72.3405 59.3887 72.3405 58.123V57.4551C72.3405 56.0371 72.5397 54.7305 72.9381 53.5352C73.3366 52.3398 73.9166 51.3027 74.6784 50.4238C75.4518 49.5332 76.401 48.8477 77.526 48.3672C78.651 47.875 79.9342 47.6289 81.3756 47.6289C82.7233 47.6289 83.9245 47.8516 84.9791 48.2969C86.0338 48.7305 86.9245 49.3574 87.651 50.1777C88.3776 50.9863 88.9284 51.9648 89.3034 53.1133C89.6901 54.25 89.8834 55.5273 89.8834 56.9453V59.1953H74.5553V55.6621H84.5045V55.2402C84.5045 54.5723 84.3815 53.9863 84.1354 53.4824C83.901 52.9785 83.5495 52.5918 83.0807 52.3223C82.6237 52.041 82.0436 51.9004 81.3405 51.9004C80.6725 51.9004 80.1159 52.041 79.6705 52.3223C79.2252 52.6035 78.8678 53.002 78.5983 53.5176C78.3405 54.0215 78.153 54.6133 78.0358 55.293C77.9186 55.9609 77.86 56.6816 77.86 57.4551V58.123C77.86 58.8613 77.9596 59.5352 78.1588 60.1445C78.358 60.7539 78.651 61.2754 79.0377 61.709C79.4245 62.1426 79.8932 62.4824 80.444 62.7285C80.9948 62.9746 81.6217 63.0977 82.3248 63.0977C83.192 63.0977 84.0182 62.9336 84.8034 62.6055C85.5885 62.2656 86.2682 61.7383 86.8424 61.0234L89.4088 63.959C89.0221 64.5215 88.4772 65.0664 87.7741 65.5938C87.0827 66.1094 86.2506 66.5312 85.278 66.8594C84.3053 67.1875 83.2038 67.3516 81.9733 67.3516ZM98.5185 40V67H93.0166V40H98.5185Z" fill="#FAF6F0"/>
<circle cx="93" cy="21" r="10" fill="#035397"/>
<circle cx="10" cy="55" r="10" fill="#C84B31"/>
</svg>
