<svg width="74" height="64" viewBox="0 0 74 64" fill="none" xmlns="http://www.w3.org/2000/svg">
<g clip-path="url(#clip0_31_71)">
<path d="M67.5256 4.66289C59.6605 -2.24511 47.6751 -1.43261 40.8026 6.47161L36.9999 10.7827L33.1971 6.47161C26.3246 -1.43261 14.3392 -2.24481 6.47428 4.66289C-1.39357 11.5732 -2.2041 23.6324 4.6672 31.5446L31.4981 61.5642C32.8989 63.1315 34.9044 64.0305 37 64.0305C39.0956 64.0305 41.1011 63.1315 42.5019 61.5642L69.3094 31.5712L69.3327 31.5447C76.2043 23.6324 75.3934 11.5732 67.5256 4.66289Z" fill="#3295E9"/>
<path d="M67.5256 4.66289C59.6605 -2.24511 47.6751 -1.43261 40.8026 6.47161L36.9999 10.7827V64.0306C39.0956 64.0306 41.1009 63.1316 42.5017 61.5643L69.3092 31.5712L69.3325 31.5447C76.2042 23.6324 75.3934 11.5732 67.5256 4.66289Z" fill="#3295E9"/>
</g>
<defs>
<clipPath id="clip0_31_71">
<rect width="74" height="64" fill="white"/>
</clipPath>
</defs>
</svg>
