<svg width="87" height="14" viewBox="0 0 87 14" fill="none" xmlns="http://www.w3.org/2000/svg">
<path d="M8.27601 0.439498L9.85503 3.78509C9.96484 4.01778 10.1771 4.17901 10.4227 4.21627L13.9537 4.7528C14.5722 4.84685 14.819 5.64141 14.3716 6.09732L11.8166 8.70149C11.6391 8.88257 11.5579 9.14366 11.5999 9.39925L12.203 13.0765C12.3087 13.7205 11.6621 14.2115 11.109 13.9077L7.95098 12.1717C7.73137 12.051 7.46883 12.051 7.24922 12.1717L4.09117 13.9077C3.53806 14.2118 2.8915 13.7205 2.99722 13.0765L3.60027 9.39925C3.64232 9.14366 3.56113 8.88257 3.38358 8.70149L0.828582 6.09732C0.381187 5.64111 0.627955 4.84654 1.24648 4.7528L4.77745 4.21627C5.02305 4.17901 5.23536 4.01778 5.34517 3.78509L6.92419 0.439498C7.20045 -0.146499 7.99945 -0.146499 8.27601 0.439498Z" fill="#3295E9"/>
<path d="M26.276 0.439498L27.855 3.78509C27.9648 4.01778 28.1771 4.17901 28.4227 4.21627L31.9537 4.7528C32.5722 4.84685 32.819 5.64141 32.3716 6.09732L29.8166 8.70149C29.6391 8.88257 29.5579 9.14366 29.5999 9.39925L30.203 13.0765C30.3087 13.7205 29.6621 14.2115 29.109 13.9077L25.951 12.1717C25.7314 12.051 25.4688 12.051 25.2492 12.1717L22.0912 13.9077C21.5381 14.2118 20.8915 13.7205 20.9972 13.0765L21.6003 9.39925C21.6423 9.14366 21.5611 8.88257 21.3836 8.70149L18.8286 6.09732C18.3812 5.64111 18.628 4.84654 19.2465 4.7528L22.7775 4.21627C23.0231 4.17901 23.2354 4.01778 23.3452 3.78509L24.9242 0.439498C25.2005 -0.146499 25.9995 -0.146499 26.276 0.439498Z" fill="#3295E9"/>
<path d="M44.276 0.439498L45.855 3.78509C45.9648 4.01778 46.1771 4.17901 46.4227 4.21627L49.9537 4.7528C50.5722 4.84685 50.819 5.64141 50.3716 6.09732L47.8166 8.70149C47.6391 8.88257 47.5579 9.14366 47.5999 9.39925L48.203 13.0765C48.3087 13.7205 47.6621 14.2115 47.109 13.9077L43.951 12.1717C43.7314 12.051 43.4688 12.051 43.2492 12.1717L40.0912 13.9077C39.5381 14.2118 38.8915 13.7205 38.9972 13.0765L39.6003 9.39925C39.6423 9.14366 39.5611 8.88257 39.3836 8.70149L36.8286 6.09732C36.3812 5.64111 36.628 4.84654 37.2465 4.7528L40.7775 4.21627C41.0231 4.17901 41.2354 4.01778 41.3452 3.78509L42.9242 0.439498C43.2005 -0.146499 43.9995 -0.146499 44.276 0.439498Z" fill="#3295E9"/>
<path d="M62.2755 0.439498L63.8545 3.78509C63.9643 4.01778 64.1767 4.17901 64.4223 4.21627L67.9532 4.7528C68.5718 4.84685 68.8185 5.64141 68.3711 6.09732L65.8161 8.70149C65.6386 8.88257 65.5574 9.14366 65.5994 9.39925L66.2025 13.0765C66.3082 13.7205 65.6616 14.2115 65.1085 13.9077L61.9505 12.1717C61.7309 12.051 61.4683 12.051 61.2487 12.1717L58.0907 13.9077C57.5376 14.2118 56.891 13.7205 56.9967 13.0765L57.5998 9.39925C57.6418 9.14366 57.5606 8.88257 57.3831 8.70149L54.8281 6.09732C54.3807 5.64111 54.6275 4.84654 55.246 4.7528L58.777 4.21627C59.0226 4.17901 59.2349 4.01778 59.3447 3.78509L60.9237 0.439498C61.2 -0.146499 61.999 -0.146499 62.2755 0.439498Z" fill="#3295E9"/>
<path d="M80.2755 0.439498L81.8545 3.78509C81.9643 4.01778 82.1767 4.17901 82.4223 4.21627L85.9532 4.7528C86.5718 4.84685 86.8185 5.64141 86.3711 6.09732L83.8161 8.70149C83.6386 8.88257 83.5574 9.14366 83.5994 9.39925L84.2025 13.0765C84.3082 13.7205 83.6616 14.2115 83.1085 13.9077L79.9505 12.1717C79.7309 12.051 79.4683 12.051 79.2487 12.1717L76.0907 13.9077C75.5376 14.2118 74.891 13.7205 74.9967 13.0765L75.5998 9.39925C75.6418 9.14366 75.5606 8.88257 75.3831 8.70149L72.8281 6.09732C72.3807 5.64111 72.6275 4.84654 73.246 4.7528L76.777 4.21627C77.0226 4.17901 77.2349 4.01778 77.3447 3.78509L78.9237 0.439498C79.2 -0.146499 79.999 -0.146499 80.2755 0.439498Z" fill="#3295E9"/>
</svg>
