<svg width="87" height="14" viewBox="0 0 87 14" fill="none" xmlns="http://www.w3.org/2000/svg">
<path d="M8.47572 0.439498L10.0547 3.78509C10.1645 4.01778 10.3769 4.17901 10.6225 4.21627L14.1534 4.7528C14.7719 4.84685 15.0187 5.64141 14.5713 6.09732L12.0163 8.70149C11.8388 8.88257 11.7576 9.14366 11.7996 9.39925L12.4027 13.0765C12.5084 13.7205 11.8618 14.2115 11.3087 13.9077L8.15068 12.1717C7.93107 12.051 7.66854 12.051 7.44893 12.1717L4.29088 13.9077C3.73777 14.2118 3.09121 13.7205 3.19693 13.0765L3.79997 9.39925C3.84203 9.14366 3.76084 8.88257 3.58329 8.70149L1.02829 6.09732C0.580894 5.64111 0.827662 4.84654 1.44619 4.7528L4.97716 4.21627C5.22276 4.17901 5.43507 4.01778 5.54487 3.78509L7.12389 0.439498C7.40016 -0.146499 8.19916 -0.146499 8.47572 0.439498Z" fill="#3295E9"/>
<path d="M26.4757 0.439498L28.0547 3.78509C28.1645 4.01778 28.3769 4.17901 28.6225 4.21627L32.1534 4.7528C32.7719 4.84685 33.0187 5.64141 32.5713 6.09732L30.0163 8.70149C29.8388 8.88257 29.7576 9.14366 29.7996 9.39925L30.4027 13.0765C30.5084 13.7205 29.8618 14.2115 29.3087 13.9077L26.1507 12.1717C25.9311 12.051 25.6685 12.051 25.4489 12.1717L22.2909 13.9077C21.7378 14.2118 21.0912 13.7205 21.1969 13.0765L21.8 9.39925C21.842 9.14366 21.7608 8.88257 21.5833 8.70149L19.0283 6.09732C18.5809 5.64111 18.8277 4.84654 19.4462 4.7528L22.9772 4.21627C23.2228 4.17901 23.4351 4.01778 23.5449 3.78509L25.1239 0.439498C25.4002 -0.146499 26.1992 -0.146499 26.4757 0.439498Z" fill="#3295E9"/>
<path d="M44.4757 0.439498L46.0547 3.78509C46.1645 4.01778 46.3769 4.17901 46.6225 4.21627L50.1534 4.7528C50.7719 4.84685 51.0187 5.64141 50.5713 6.09732L48.0163 8.70149C47.8388 8.88257 47.7576 9.14366 47.7996 9.39925L48.4027 13.0765C48.5084 13.7205 47.8618 14.2115 47.3087 13.9077L44.1507 12.1717C43.9311 12.051 43.6685 12.051 43.4489 12.1717L40.2909 13.9077C39.7378 14.2118 39.0912 13.7205 39.1969 13.0765L39.8 9.39925C39.842 9.14366 39.7608 8.88257 39.5833 8.70149L37.0283 6.09732C36.5809 5.64111 36.8277 4.84654 37.4462 4.7528L40.9772 4.21627C41.2228 4.17901 41.4351 4.01778 41.5449 3.78509L43.1239 0.439498C43.4002 -0.146499 44.1992 -0.146499 44.4757 0.439498Z" fill="#3295E9"/>
<path d="M62.4757 0.439498L64.0547 3.78509C64.1645 4.01778 64.3769 4.17901 64.6225 4.21627L68.1534 4.7528C68.7719 4.84685 69.0187 5.64141 68.5713 6.09732L66.0163 8.70149C65.8388 8.88257 65.7576 9.14366 65.7996 9.39925L66.4027 13.0765C66.5084 13.7205 65.8618 14.2115 65.3087 13.9077L62.1507 12.1717C61.9311 12.051 61.6685 12.051 61.4489 12.1717L58.2909 13.9077C57.7378 14.2118 57.0912 13.7205 57.1969 13.0765L57.8 9.39925C57.842 9.14366 57.7608 8.88257 57.5833 8.70149L55.0283 6.09732C54.5809 5.64111 54.8277 4.84654 55.4462 4.7528L58.9772 4.21627C59.2228 4.17901 59.4351 4.01778 59.5449 3.78509L61.1239 0.439498C61.4002 -0.146499 62.1992 -0.146499 62.4757 0.439498Z" fill="#3295E9"/>
<path d="M80.4757 0.439498L82.0547 3.78509C82.1645 4.01778 82.3769 4.17901 82.6225 4.21627L86.1534 4.7528C86.7719 4.84685 87.0187 5.64141 86.5713 6.09732L84.0163 8.70149C83.8388 8.88257 83.7576 9.14366 83.7996 9.39925L84.4027 13.0765C84.5084 13.7205 83.8618 14.2115 83.3087 13.9077L80.1507 12.1717C79.9311 12.051 79.6685 12.051 79.4489 12.1717L76.2909 13.9077C75.7378 14.2118 75.0912 13.7205 75.1969 13.0765L75.8 9.39925C75.842 9.14366 75.7608 8.88257 75.5833 8.70149L73.0283 6.09732C72.5809 5.64111 72.8277 4.84654 73.4462 4.7528L76.9772 4.21627C77.2228 4.17901 77.4351 4.01778 77.5449 3.78509L79.1239 0.439498C79.4002 -0.146499 80.1992 -0.146499 80.4757 0.439498Z" fill="#3295E9"/>
</svg>
