<svg width="64" height="64" viewBox="0 0 64 64" fill="none" xmlns="http://www.w3.org/2000/svg">
<g clip-path="url(#clip0_31_74)">
<path d="M63.9869 9.15413C63.9869 10.8484 62.6078 12.2274 60.9136 12.2274H18.6234C16.9292 12.2274 15.5502 10.8484 15.5502 9.15413C15.5502 7.4599 16.9292 6.08087 18.6234 6.08087H60.9267C62.621 6.09401 63.9869 7.4599 63.9869 9.15413ZM60.9267 21.3158H18.6234C16.9292 21.3158 15.5502 22.6949 15.5502 24.3891C15.5502 26.0833 16.9292 27.4624 18.6234 27.4624H60.9267C62.621 27.4624 64 26.0833 64 24.3891C63.9869 22.6949 62.621 21.3158 60.9267 21.3158ZM60.9267 36.5508H18.6234C16.9292 36.5508 15.5502 37.9298 15.5502 39.6241C15.5502 41.3183 16.9292 42.6973 18.6234 42.6973H60.9267C62.621 42.6973 64 41.3183 64 39.6241C63.9869 37.9298 62.621 36.5508 60.9267 36.5508ZM60.9267 51.7858H18.6234C16.9292 51.7858 15.5502 53.1648 15.5502 54.859C15.5502 56.5533 16.9292 57.9323 18.6234 57.9323H60.9267C62.621 57.9323 64 56.5533 64 54.859C63.9869 53.1648 62.621 51.7858 60.9267 51.7858ZM5.10897 4.04517C2.28525 4.04517 0 6.33041 0 9.15413C0 11.9779 2.28525 14.2762 5.10897 14.2762C7.93269 14.2762 10.2179 11.9779 10.2179 9.15413C10.2179 6.33041 7.93269 4.04517 5.10897 4.04517ZM5.10897 19.2801C2.28525 19.2801 0 21.5654 0 24.3891C0 27.2128 2.28525 29.4981 5.10897 29.4981C7.93269 29.4981 10.2179 27.2128 10.2179 24.3891C10.2179 21.5654 7.93269 19.2801 5.10897 19.2801ZM5.10897 34.5151C2.28525 34.5151 0 36.8004 0 39.6241C0 42.4478 2.28525 44.733 5.10897 44.733C7.93269 44.733 10.2179 42.4478 10.2179 39.6241C10.2179 36.8004 7.93269 34.5151 5.10897 34.5151ZM5.10897 49.7369C2.28525 49.7369 0 52.0222 0 54.8459C0 57.6696 2.28525 59.9549 5.10897 59.9549C7.93269 59.9549 10.2179 57.6696 10.2179 54.8459C10.2179 52.0353 7.93269 49.7369 5.10897 49.7369Z" fill="#3295E9"/>
</g>
<defs>
<clipPath id="clip0_31_74">
<rect width="64" height="64" fill="white"/>
</clipPath>
</defs>
</svg>
