<svg width="56" height="54" viewBox="0 0 56 54" fill="none" xmlns="http://www.w3.org/2000/svg">
<path d="M25.3733 53.092C26.087 53.679 26.9823 53.9999 27.9062 53.9999C28.83 53.9999 29.7253 53.679 30.439 53.092L54.3714 33.8161C54.7811 33.4868 55.1218 33.0797 55.3738 32.6182C55.6257 32.1567 55.7841 31.6499 55.8397 31.127C55.8953 30.6041 55.847 30.0753 55.6977 29.5711C55.5484 29.0669 55.301 28.5972 54.9697 28.189C54.6405 27.779 54.2336 27.4382 53.7724 27.1861C53.3111 26.934 52.8046 26.7755 52.282 26.7199C51.7594 26.6643 51.2309 26.7125 50.727 26.8619C50.223 27.0113 49.7536 27.2589 49.3456 27.5904L27.9261 44.8708L6.54651 26.9917C5.73194 26.3143 4.68179 25.9884 3.62707 26.0857C2.57234 26.183 1.59944 26.6956 0.922403 27.5106C0.245361 28.3256 -0.0803658 29.3763 0.0168783 30.4316C0.114122 31.4869 0.626373 32.4603 1.44094 33.1377L25.3733 53.092Z" fill="#C84B31"/>
<path d="M25.3733 27.0232C26.087 27.6101 26.9823 27.931 27.9062 27.931C28.83 27.931 29.7253 27.6101 30.439 27.0232L54.3714 7.74728C54.7811 7.41794 55.1218 7.01083 55.3738 6.54934C55.6257 6.08785 55.7841 5.58108 55.8397 5.05816C55.8953 4.53524 55.8471 4.00649 55.6977 3.50229C55.5484 2.99808 55.301 2.52837 54.9697 2.12016C54.6405 1.71019 54.2336 1.36935 53.7724 1.11723C53.3111 0.865112 52.8046 0.706686 52.282 0.651056C51.7594 0.595427 51.2309 0.643691 50.727 0.793076C50.223 0.942461 49.7536 1.19002 49.3456 1.52153L27.9261 18.802L6.54651 0.922897C5.73195 0.245493 4.68179 -0.0804089 3.62707 0.0168874C2.57234 0.114184 1.59944 0.626708 0.922403 1.44171C0.245361 2.25671 -0.0803658 3.30743 0.0168783 4.36272C0.114122 5.41801 0.626373 6.39143 1.44094 7.06883L25.3733 27.0232Z" fill="#C84B31"/>
</svg>
